<?xml version="1.0" encoding="utf-8"?>
<!-- Generator: Adobe Illustrator 16.0.0, SVG Export Plug-In . SVG Version: 6.00 Build 0)  -->
<!DOCTYPE svg PUBLIC "-//W3C//DTD SVG 1.1//EN" "http://www.w3.org/Graphics/SVG/1.1/DTD/svg11.dtd">
<svg version="1.1" id="Layer_1" xmlns="http://www.w3.org/2000/svg" xmlns:xlink="http://www.w3.org/1999/xlink" x="0px" y="0px"
	 width="309.007px" height="318.625px" viewBox="41.011 133.647 309.007 318.625"
	 enable-background="new 41.011 133.647 309.007 318.625" xml:space="preserve">
<g>
	<path d="M149.164,133.653c-0.544,0.01-15.354,0.097-34.136,6.891c-18.73,6.778-41.646,20.554-56.919,47.735
		c-10.185,18.091-16.86,41.895-17.089,72.843c-0.005,0.879-0.01,1.759-0.01,2.638c-0.005,60.316,16.098,107.424,43.25,139.602
		c27.109,32.195,65.267,48.965,107.317,48.911h3.212h1.447h3.212c42.051,0.059,80.209-16.71,107.322-48.906
		c27.152-32.177,43.25-79.29,43.246-139.606c0-0.879-0.005-1.754-0.01-2.633c-0.229-30.953-6.905-54.757-17.09-72.837
		c-15.272-27.182-38.188-40.967-56.918-47.741c-18.781-6.798-33.591-6.88-34.135-6.895l-1.123-0.004l-5.521,1.71l5.326,9.515h0.117
		c1.919,0.009,20.053,5.733,40.185,18.664c10.092,6.462,19.956,15.812,27.478,29.718c7.509,13.926,12.722,32.546,12.92,57.779
		c0.006,0.758,0.011,1.521,0.011,2.274c-0.005,52.099-13.877,91.234-35.807,117.2c-21.964,25.938-51.987,39.214-86.365,39.268
		h-2.847v-0.005h-4.296c-34.378-0.06-64.401-13.323-86.364-39.263c-21.93-25.972-35.797-65.102-35.808-117.2
		c0-0.753,0.005-1.521,0.011-2.274c0.198-25.238,5.412-43.858,12.92-57.779c7.521-13.917,17.386-23.26,27.478-29.723
		c20.131-12.93,38.265-18.649,40.185-18.658l0.121-0.005l5.32-9.509l-5.52-1.715L149.164,133.653z"/>
	<path d="M183.916,229.931h-1.123c-0.549,0.02-5.117,0.053-11.069,2.196c-5.898,2.114-13.392,6.627-18.29,15.364
		c-3.26,5.787-5.262,13.222-5.32,22.366c-0.005,0.258-0.005,0.51-0.005,0.753c-0.005,17.309,4.631,31.428,13.003,41.365
		c8.344,9.957,20.418,15.238,33.227,15.176h0.452v0.004h1.899c12.813,0.06,24.883-5.223,33.227-15.18
		c8.373-9.932,13.008-24.053,13.003-41.365c0-0.243,0-0.491,0-0.748c-0.063-9.145-2.065-16.579-5.326-22.366
		c-4.898-8.737-12.391-13.25-18.289-15.364c-5.952-2.143-10.52-2.182-11.069-2.191l-1.123-0.01l-2.282,0.709l1.958,7.926v0.073
		c0.598,0,5.345,3.668,8.396,6.623c1.754,1.696,5.053,6.098,6.569,9.004c1.497,2.911,2.668,6.978,2.716,12.93
		c0,0.188,0,0.389,0.005,0.583c-0.01,13.237-3.518,22.551-8.479,28.416c-4.995,5.845-11.453,8.728-19.402,8.786h-0.354h-1.447
		h-0.354c-7.95-0.059-14.407-2.944-19.402-8.791c-4.961-5.859-8.47-15.18-8.479-28.416c0.005-0.194,0.005-0.393,0.005-0.583
		c0.048-5.947,1.219-10.02,2.716-12.93c1.517-2.906,4.816-7.303,6.57-9c3.056-2.954,7.798-6.632,8.401-6.623l-0.004-0.073
		l1.958-7.926L183.916,229.931z"/>
</g>
</svg>
