<?xml version="1.0" encoding="utf-8"?>
<!-- Generator: Adobe Illustrator 16.0.0, SVG Export Plug-In . SVG Version: 6.00 Build 0)  -->
<!DOCTYPE svg PUBLIC "-//W3C//DTD SVG 1.1//EN" "http://www.w3.org/Graphics/SVG/1.1/DTD/svg11.dtd">
<svg version="1.1" id="Layer_1" xmlns="http://www.w3.org/2000/svg" xmlns:xlink="http://www.w3.org/1999/xlink" x="0px" y="0px"
	 width="300px" height="89.848px" viewBox="0 0 300 89.848" enable-background="new 0 0 300 89.848" xml:space="preserve">
<g>
	<g>
		<defs>
			<rect id="SVGID_1_" width="300" height="89.848"/>
		</defs>
		<clipPath id="SVGID_2_">
			<use xlink:href="#SVGID_1_"  overflow="visible"/>
		</clipPath>
		<path clip-path="url(#SVGID_2_)" fill="#FFFFFF" d="M273.9,46.684c-3.567-1.446-6.271-3.828-9.011-6.252l5.086-20.316
			c0,0,1.879,10.561,2.846,14.79c0.438,1.924,1.641,7.07,2.822,12.112C275.061,47.015,274.478,46.917,273.9,46.684L273.9,46.684z
			 M234.786,60.819c-2.45,1.009-4.956-5.317-4.956-8.763c0-0.587,0.053-1.231,0.152-1.903
			C232.517,52.622,237.154,59.8,234.786,60.819L234.786,60.819z M207.718,37.621c0.27-1.16,0.488-2.101,0.627-2.715
			c0.966-4.229,2.847-15.171,2.847-15.171l4.882,19.504C213.259,38.534,210.426,38.009,207.718,37.621L207.718,37.621z
			 M107.172,49.379c-4.057-2.995-7.13-5.515-11.125-7.687l5.092-22.363c0,0,2.77,11.552,3.783,15.727
			c0.568,2.34,2.351,9.513,3.808,15.369C108.221,50.083,107.704,49.735,107.172,49.379L107.172,49.379z M89.965,47.046
			c-0.812,3.276-1.945,13.801-5.535,17.936c-1.553-1.374-2.984-3.604-3.844-5.885c-1.165-3.091-0.95-12.528-0.95-12.528
			l-0.042-6.132c4.026,1.006,7.231,1.699,11.104,3.5C90.4,45.237,90.144,46.327,89.965,47.046L89.965,47.046z M44.908,54.979
			c0.254,7.279-8.191,13.33-15.464,14.437c-8.238,1.256-15.583-4.029-17.015-10.682c-1.544-7.172,7.641-12.859,13.645-12.355
			c-7.634,6.582-4.015,18.552,7.48,14.098c7.512-2.912,8.185-13.014,0.77-16.132c3.158-1.386,4.178-1.121,4.178-1.121
			C41.106,45.646,44.724,49.7,44.908,54.979L44.908,54.979z M31.115,46.502c0,0,4.779-0.616,4.779,4.56
			c0,5.177-7.381,8.011-9.804,6.04c-2.422-1.97-0.895-5.027,0.705-7.333C28.889,46.749,31.115,46.502,31.115,46.502L31.115,46.502z
			 M21.726,16.462C20.878,8.236,27.614,4.491,35.305,3.117c-4.349,3.384-7.932,8.154-7.207,12.497
			c-2.578,0.638-3.623,1.346-6.224,1.876C21.815,17.155,21.763,16.813,21.726,16.462L21.726,16.462z M42.245,16.552
			c2.472,0.044,2.412,1.94,2.412,1.94s0.726,3.472-3.984,3.575c-4.794,0.104-6.612-3.852-6.612-3.852S39.097,16.496,42.245,16.552
			L42.245,16.552z M179.258,38.993c-1.604,0.42-3.081,0.862-4.445,1.322c-0.224-2.254-0.446-4.406-0.611-5.978
			c1.071-0.385,2.133-0.833,3.167-1.333c2.343,1.401,4.769,3.019,6.865,4.762C182.714,38.116,181.06,38.521,179.258,38.993
			L179.258,38.993z M173.174,12.508c0,0,9.317,2.594,9.317,9.037c0,5.174-5.271,7.172-7.348,7.759
			c-0.322-0.097-0.656-0.193-0.994-0.289C173.423,25.96,173.174,12.508,173.174,12.508L173.174,12.508z M161.958,56.352
			c0-3.371,2.81-8.009,6.634-10.629c0.01,2.51-0.026,6.27,0.021,7.766C168.865,61.781,161.958,62.973,161.958,56.352L161.958,56.352
			z M160.913,31.834c0-3.848,7.413-1.342,7.413-1.342l0.094,2.864C168.42,33.356,160.913,35.682,160.913,31.834L160.913,31.834z
			 M292.545,38.929c-2.795,0.644-6.805,2.931-10.004,5.221c-0.555,0.317-1.129,0.661-1.715,1.001
			c-2.136-9.268-4.159-18.965-4.56-21.183c-0.663-3.686-2.96-15.53-3.323-18.068c-0.364-2.538-1.089-5.56-1.089-5.56
			s-1.571,0.845-2.478,0.967c-0.906,0.12-5.862,22.903-6.586,26.105c-0.359,1.587-1.194,5.531-2.045,9.549
			c-0.447-0.335-0.898-0.666-1.37-0.981c-3.475-2.333-7.679-3.427-11.883-3.381c-0.072-5.828-0.236-20.275-0.159-23.968
			c0.095-4.658,5.501-6.422,5.501-6.422s-1.985,0.527-8.26,0.338c-6.275-0.191-9.504-0.952-9.504-0.952s1.425,0.952,3.707,3.613
			c2.281,2.662,1.996,6.654,1.996,6.654s0.127,10.76,0.27,21.726c-5.375,1.625-10.061,5.222-12.295,10.581l-0.166-0.129
			c-2.275-1.305-4.767-2.384-7.352-3.277c-1.08-5.056-2.379-11.256-2.854-13.35c-0.725-3.203-5.681-25.985-6.585-26.105
			c-0.908-0.122-2.479-0.967-2.479-0.967s-0.724,3.021-1.087,5.56c-0.364,2.538-2.66,14.382-3.324,18.068
			c-0.281,1.559-1.362,6.812-2.725,13.014c-6.972-0.618-12.102-0.403-12.102-0.403c-2.682-2.365-6.089-4.12-9.446-5.407
			c4.184-2.729,7.28-6.431,7.28-10.701c0-13.154-19.869-16.286-19.869-16.286l-0.473,0.448c0,0,1.046,11.811,0.95,16.464
			c-0.04,1.938,0.084,4.432,0.245,6.685c-5.241-0.862-10.227-0.491-10.227,4.052c0,3.75,4.507,4.833,9.989,3.978
			c0.009,1.455,0.027,4.165,0.042,7.11c-8.557,4.469-9.652,9.873-9.652,14.146c0,6.701,7.118,13.327,13.912,6.689
			c2.716-2.749,3.06-9.71,2.819-13.849c-0.083-1.418-0.261-4.458-0.47-6.864c3.804-1.63,8.03-2.535,12.396-2.891
			c1.43,2.082,2.332,4.923,2.522,6.535c0,0,1.711,6.859-7.985,15.122c-8.331,7.1-23.891,7.843-23.891,7.843
			c0.003,0.012,0.005,0.026,0.007,0.039c-0.332,0.009-0.666,0.009-1.002,0.006c-0.145-5.99-0.372-15.316-0.373-15.391
			c-0.021-2.727-0.144-6.606-0.144-6.606l-0.333-11.725c-0.158-10.737-0.835-17.862-0.563-26.809
			c0.126-4.176,1.901-6.682,1.901-6.682l-4.437-0.715c-4.437,0.715-6.083,8.709-7.985,18.254
			c-1.901,9.545-5.323,22.341-5.323,22.341s-2.756-7.04-4.658-12.527c-1.901-5.489-6.264-29.276-9.411-29.679
			c-2.789-0.355-7.225,0-7.225,0s2.154,3.878,3.422,6.861c1.268,2.982,0.887,6.919,1.014,13.124
			c0.128,6.204-0.602,25.815-0.602,25.815c0.031,7.412-4.72,8.187-4.72,8.187s3.38,2.562,7.54,4.328
			c4.848,2.059,9.601,3.848,9.601,3.848s-3.2-4.771-4.911-8.533c-2.103-4.623-2.345-10.706-2.345-10.706l0.698-17.806
			c0,0,3.639,10.597,5.417,14.852c2.282,5.458,6.274,15.033,6.274,15.033s2.566-4.743,4.722-10.798
			c2.314-6.502,5.83-23.562,5.83-23.562s0.001,7.815,0.254,12.586c0.252,4.772,0,14.379,0,18.077c0,0.81,0.054,9.998-0.394,17.592
			c-13.766-2.337-28.708-10.228-28.708-10.228c-1.833-1.041-3.753-2.242-5.868-3.622c-2.91-10.605-6.781-27.906-7.364-30.947
			c-0.697-3.639-3.104-15.332-3.485-17.837c-0.379-2.505-1.14-5.487-1.14-5.487s-1.648,0.835-2.599,0.954
			c-0.951,0.12-6.148,22.608-6.908,25.771c-0.456,1.899-1.646,7.226-2.715,11.95c-0.178-0.073-0.355-0.149-0.534-0.22
			c-3.966-1.552-7.356-2.639-11.592-3.366c-0.072-1.651-0.437-10.087-0.495-12.719c-0.063-2.923,0.253-8.232,0.634-12.11
			c0.38-3.877,3.486-5.309,3.486-5.309S81.03,4.395,76.72,3.678c-3.321-0.552-7.794-0.835-7.794-0.835
			c2.345,3.162,2.979,4.892,3.677,8.83c0.696,3.937,0.317,5.308,0.634,11.333c0.179,3.435,0.196,7.908,0.175,12.102
			c-3.588-0.433-6.011-0.332-6.896-0.266c-1.756-0.051-3.512-0.061-5.258-0.031c-0.749,0.013-1.649,0.053-2.649,0.119
			c-0.116-3.363-0.647-20.629,0.432-25.227c1.204-5.13,5.133-7.337,5.133-7.337s-2.979-0.417-7.225-0.417
			c-2.979,0-7.352-0.477-7.352-0.477c2.853,2.744,3.866,7.099,4.057,10.619c0.166,3.06-0.293,19.196-0.415,23.357
			c-4.464,0.553-9.287,1.456-12.063,2.688c-2.337-2.54-4.258-3.993-4.258-3.993l-0.116-0.087
			c-5.329-4.845-9.259-7.351-13.514-12.417c2.396-0.86,4.249-1.889,6.367-2.065c0.836,1.271,1.938,2.86,3.434,3.842
			c1.816,1.194,4.585,1.954,6.839,2.222c5.066,0.601,10.727-2.251,10.754-7.288c0.04-7.182-11.493-4.945-17.307-3.616
			c0.019-0.38,0.064-0.756,0.152-1.129c0.616-2.621,2.315-5.002,4.171-7.01c1.732-1.875,8.066-5.88,8.066-5.88
			C41.967-0.088,35.682,0.22,35.682,0.22C29.07,0.758,20.967,4.08,16.959,9.308c-2.358,3.077-2.849,6.068-2.15,8.944
			c-3.791-0.174-9.035-1.477-12.239-2.255l-0.859,0.572c-3.92,3.373-0.483,7.212,4.067,7.994c2.914,0.501,7.691-0.108,11.594-1.029
			c4.759,6.7,13.812,12.247,17.945,16.941c-0.634,0.246-3.876,2.045-4.833,2.484l-1.006,0.461c-4.19-0.863-9.003-1.208-13.196,0.532
			C7.961,47.405,5.87,54.649,5.87,58.734c0,11.99,11.407,19.451,23.954,18.914c8.01-0.342,17.265-7.144,19.266-17.3
			c1.518-7.697-1.84-14.479-5.41-19.214c3.145-1.032,6.294-1.815,9.439-2.358c-0.093,2.612-0.229,7.191-0.29,12.655
			c-0.162,14.577-0.559,12.146-5.502,18.514c0.273-0.351,4.291-1.994,8.366-2.567c4.653-0.655,9.304-1.184,9.304-1.184
			s-5.514-2.504-6.084-7.874c-0.314-2.963-0.253-7.277-0.253-7.277l-0.027-11.897c4.964-0.413,9.898-0.227,14.757,0.541
			c-0.013,1.836-0.027,2.455-0.027,3.87c0,5.087,0.761,12.616-0.285,17.27c-1.026,4.566-3.517,4.921-3.517,4.921
			s4.394-0.229,7.731-0.149c5.007,0.119,8.824,0.761,8.824,0.761s-0.008-0.006-0.022-0.016c0.396,0.065,0.874,0.149,1.591,0.269
			c2.472,0.418,6.78,1.432,6.78,1.432s-2.281-2.326-2.598-5.727c-0.256-2.751,2.101-12.051,3.011-15.773
			c2.539,1.476,4.327,2.411,6.813,4.261c3.22,2.396,6.059,4.531,8.734,6.424c0.245,0.987,0.391,1.569,0.391,1.569
			s1.41,9.503,0.064,12.482c-1.573,3.481-7.15,5.382-7.15,5.382s3.18,0.665,10.773,2.789c4.689,1.311,12.917,2.702,12.917,2.702
			s-5.781-10.241-9.367-19.963c0.848,0.456,1.521,1.021,2.296,1.576c6.764,4.846,16.764,10.467,29.387,12.608
			c-0.324,8.559-5.574,12.967-5.574,12.967s2.154,0.507,9.633,0.507c5.895,0,9.632-1.014,9.632-1.014s-5.596-5.166-5.638-11.665
			c2.133-0.049,29.058-1.069,37.819-21.116c0,0,3.816-8.86-2.524-16.077c1.983,0.031,5.874,0.158,7.842,0.363
			c0,0,0.179,0.01,0.501,0.035c-1.716,7.665-3.689,15.978-5.045,20.335c-3.384,10.877-9.124,17.283-9.124,17.283
			s5.258,0.708,11.494-3.203c4.899-3.071,10.359-4.968,10.359-4.968s-3.934-0.785-5.708-3.172c-1.932-2.598-0.676-7.693-0.676-7.693
			s2.482-10.572,4.198-17.921c2.86,0.447,6.463,1.167,10.18,2.303l0.454,1.815c0,0,3.124,13.924,2.823,17.367
			c-0.303,3.445-2.478,5.168-2.478,5.168s3.314-0.459,5.703-0.685c2.801-0.265,3.17-0.212,6.025-0.105
			c-4.23-3.142-6.177-16.222-7.022-19.847c-0.113-0.481-0.258-1.127-0.424-1.887c0.903,0.379,1.799,0.786,2.67,1.228
			c0.897,0.506,1.767,1.052,2.591,1.645c-0.178,1.123-0.276,2.341-0.276,3.66c0,11.455,7.732,14.019,7.732,14.019
			s2.983,1.011,4.145-1.682c1.19-3.343-0.014-8.034-2.224-11.144c-1.11-1.755-2.351-3.434-3.777-4.979
			c-0.465-0.505-0.945-0.974-1.432-1.426c1.004-1.593,1.618-3.648,5.666-6.109c1.229-0.748,2.513-1.408,3.832-1.955
			c0.086,6.321,0.17,12.18,0.235,15.457c0.19,9.696-1.832,14.976-1.832,14.976s8.122,0.076,15.274,4.438
			c10.569,6.447,14.638,5.867,14.638,5.867s4.597-3.7,6.606-8.298c1.523-3.488,0.793-9.512,0.793-9.512
			c-7.007,8.865-17.124,5.126-17.124,5.126c-5.513-1.14-11.045-2.588-11.045-2.588l-1.062-27.086
			c3.404-0.261,6.798,0.477,9.839,2.67c0.841,0.605,1.609,1.292,2.349,2.013c-0.509,2.374-0.954,4.425-1.221,5.567
			c-0.846,3.625-2.234,12.211-6.463,15.354c2.041,0.281,3.154,0.288,5.25,0.665c2.355,0.422,5.74,1.451,5.74,1.451
			s-1.035-2.358-1.336-5.802c-0.302-3.444,1.861-13.187,1.861-13.187l0.035-0.131c0.243,0.231,0.491,0.462,0.745,0.684
			c1.718,1.507,3.581,2.878,5.617,3.931c2.071,1.07,4.468,2.218,6.835,2.122c0.906,3.867,1.602,6.818,1.602,6.818
			s1.392,7.361,0.44,12.275c-1.255,6.484-6.977,8.668-6.977,8.668s3.224,1.288,10.571-0.476c6.605-1.586,8.402-6.289,8.402-6.289
			s-2.709-1.55-6.094-12.427c-0.744-2.388-1.672-5.967-2.643-9.974c0.745-0.319,1.474-0.668,2.197-1.036
			c4.832-2.229,11.115-5.184,14.473-4.11l0.57-0.858C301.701,40.105,297.046,37.893,292.545,38.929L292.545,38.929z"/>
	</g>
</g>
</svg>
